<svg width="147" height="139" viewBox="0 0 147 139" fill="none" xmlns="http://www.w3.org/2000/svg">
<path d="M117.912 58.499L118.312 58.499L118.312 58.099L117.912 58.099L117.912 58.499ZM117.629 112.781C117.785 112.938 118.039 112.938 118.195 112.781L120.74 110.236C120.897 110.08 120.897 109.826 120.74 109.67C120.584 109.514 120.331 109.514 120.175 109.67L117.912 111.933L115.649 109.67C115.493 109.514 115.24 109.514 115.084 109.67C114.927 109.826 114.927 110.08 115.084 110.236L117.629 112.781ZM1.4116 58.8989L7.23662 58.8989L7.23662 58.0989L1.4116 58.0989L1.4116 58.8989ZM18.8867 58.8989L30.5367 58.8989L30.5367 58.0989L18.8867 58.0989L18.8867 58.8989ZM42.1867 58.8989L53.8368 58.8989L53.8368 58.0989L42.1867 58.0989L42.1867 58.8989ZM65.4868 58.8989L77.1369 58.899L77.1369 58.099L65.4868 58.0989L65.4868 58.8989ZM88.7869 58.899L100.437 58.899L100.437 58.099L88.7869 58.099L88.7869 58.899ZM112.087 58.899L117.912 58.899L117.912 58.099L112.087 58.099L112.087 58.899ZM117.512 58.499L117.512 65.2489L118.312 65.2489L118.312 58.499L117.512 58.499ZM117.512 78.7488L117.512 92.2488L118.312 92.2488L118.312 78.7488L117.512 78.7488ZM117.512 105.749L117.512 112.499L118.312 112.499L118.312 105.749L117.512 105.749ZM117.912 58.499L118.712 58.499L118.712 57.699L117.912 57.699L117.912 58.499ZM117.346 113.064C117.659 113.377 118.165 113.377 118.478 113.064L123.569 107.973C123.881 107.661 123.881 107.154 123.569 106.842C123.256 106.529 122.75 106.529 122.438 106.842L117.912 111.367L113.387 106.842C113.074 106.529 112.568 106.529 112.255 106.842C111.943 107.154 111.943 107.661 112.255 107.973L117.346 113.064ZM1.4116 59.2989L7.23662 59.2989L7.23662 57.6989L1.4116 57.6989L1.4116 59.2989ZM18.8867 59.2989L30.5367 59.2989L30.5367 57.6989L18.8867 57.6989L18.8867 59.2989ZM42.1867 59.2989L53.8368 59.2989L53.8368 57.6989L42.1867 57.6989L42.1867 59.2989ZM65.4868 59.2989L77.1369 59.299L77.1369 57.699L65.4868 57.6989L65.4868 59.2989ZM88.7869 59.299L100.437 59.299L100.437 57.699L88.7869 57.699L88.7869 59.299ZM112.087 59.299L117.912 59.299L117.912 57.699L112.087 57.699L112.087 59.299ZM117.112 58.499L117.112 65.2489L118.712 65.2489L118.712 58.499L117.112 58.499ZM117.112 78.7488L117.112 92.2488L118.712 92.2488L118.712 78.7488L117.112 78.7488ZM117.112 105.749L117.112 112.499L118.712 112.499L118.712 105.749L117.112 105.749Z" fill="#838383"/>
</svg>
