<svg width="92" height="98" viewBox="0 0 92 98" fill="none" xmlns="http://www.w3.org/2000/svg">
<path d="M56.7546 69.867L56.7561 70.267L57.1532 70.2655L57.1546 69.8684L56.7546 69.867ZM3.26037 69.7749C3.10472 69.9316 3.10563 70.1849 3.26239 70.3406L5.81704 72.877C5.9738 73.0327 6.22707 73.0318 6.38272 72.875C6.53837 72.7183 6.53747 72.465 6.3807 72.3093L4.10991 70.0547L6.36456 67.7839C6.52022 67.6271 6.51931 67.3739 6.36255 67.2182C6.20578 67.0626 5.95252 67.0635 5.79686 67.2202L3.26037 69.7749ZM56.5998 0.998576L56.5794 6.73749L57.3794 6.74034L57.3998 1.00142L56.5998 0.998576ZM56.5385 18.2153L56.4977 29.6931L57.2977 29.696L57.3385 18.2182L56.5385 18.2153ZM56.4568 41.171L56.4159 52.6488L57.2159 52.6516L57.2568 41.1738L56.4568 41.171ZM56.3751 64.1266L56.3546 69.8655L57.1546 69.8684L57.1751 64.1295L56.3751 64.1266ZM56.7532 69.467L50.1019 69.4907L50.1048 70.2907L56.7561 70.267L56.7532 69.467ZM36.7993 69.5381L23.4967 69.5856L23.4996 70.3855L36.8022 70.3381L36.7993 69.5381ZM10.1941 69.633L3.5428 69.6567L3.54565 70.4567L10.197 70.433L10.1941 69.633ZM56.7546 69.867L56.7575 70.667L57.5518 70.6641L57.5546 69.8698L56.7546 69.867ZM2.97652 69.493C2.66522 69.8066 2.66703 70.3131 2.98056 70.6244L8.08985 75.6974C8.40338 76.0087 8.90991 76.0069 9.22121 75.6934C9.53252 75.3798 9.53071 74.8733 9.21718 74.562L4.67559 70.0527L9.1849 65.5111C9.49621 65.1975 9.4944 64.691 9.18087 64.3797C8.86734 64.0684 8.36081 64.0702 8.04951 64.3838L2.97652 69.493ZM56.1999 0.997152L56.1794 6.73606L57.7794 6.74176L57.7998 1.00285L56.1999 0.997152ZM56.1386 18.2139L56.0977 29.6917L57.6977 29.6974L57.7385 18.2196L56.1386 18.2139ZM56.0568 41.1695L56.0159 52.6474L57.6159 52.6531L57.6568 41.1752L56.0568 41.1695ZM55.9751 64.1252L55.9546 69.8641L57.5546 69.8698L57.5751 64.1309L55.9751 64.1252ZM56.7518 69.067L50.1005 69.0907L50.1062 70.6907L56.7575 70.667L56.7518 69.067ZM36.7979 69.1381L23.4953 69.1856L23.501 70.7855L36.8036 70.7381L36.7979 69.1381ZM10.1927 69.233L3.54137 69.2567L3.54708 70.8567L10.1984 70.833L10.1927 69.233Z" fill="#838383"/>
</svg>
