<svg width="159" height="161" viewBox="0 0 159 161" fill="none" xmlns="http://www.w3.org/2000/svg">
<path d="M51.237 29.3125L50.837 29.3125L50.837 28.9125L51.237 28.9125L51.237 29.3125ZM51.2369 130.81L51.2369 131.21L50.8369 131.21L50.8369 130.81L51.2369 130.81ZM107.932 130.527C108.089 130.683 108.089 130.937 107.932 131.093L105.387 133.638C105.231 133.795 104.977 133.795 104.821 133.638C104.665 133.482 104.665 133.229 104.821 133.073L107.084 130.81L104.821 128.547C104.665 128.391 104.665 128.138 104.821 127.982C104.977 127.825 105.231 127.825 105.387 127.982L107.932 130.527ZM107.649 29.7125L100.598 29.7125L100.598 28.9125L107.649 28.9125L107.649 29.7125ZM86.4948 29.7125L72.3917 29.7125L72.3917 28.9125L86.4948 28.9125L86.4948 29.7125ZM58.2885 29.7125L51.237 29.7125L51.237 28.9125L58.2885 28.9125L58.2885 29.7125ZM51.637 29.3125L51.637 35.6561L50.837 35.6561L50.837 29.3125L51.637 29.3125ZM51.637 48.3433L51.637 61.0305L50.837 61.0305L50.837 48.3433L51.637 48.3433ZM51.637 73.7177L51.6369 86.4049L50.8369 86.4049L50.837 73.7177L51.637 73.7177ZM51.6369 99.0921L51.6369 111.779L50.8369 111.779L50.8369 99.0921L51.6369 99.0921ZM51.6369 124.466L51.6369 130.81L50.8369 130.81L50.8369 124.466L51.6369 124.466ZM51.2369 130.41L58.2885 130.41L58.2885 131.21L51.2369 131.21L51.2369 130.41ZM72.3916 130.41L86.4948 130.41L86.4948 131.21L72.3916 131.21L72.3916 130.41ZM100.598 130.41L107.65 130.41L107.65 131.21L100.598 131.21L100.598 130.41ZM51.237 29.3125L50.437 29.3125L50.437 28.5125L51.237 28.5125L51.237 29.3125ZM51.2369 130.81L51.2369 131.61L50.4369 131.61L50.4369 130.81L51.2369 130.81ZM108.215 130.244C108.528 130.557 108.528 131.063 108.215 131.376L103.124 136.467C102.812 136.779 102.305 136.779 101.993 136.467C101.68 136.155 101.68 135.648 101.993 135.336L106.518 130.81L101.993 126.285C101.68 125.972 101.68 125.466 101.993 125.153C102.305 124.841 102.812 124.841 103.124 125.153L108.215 130.244ZM107.649 30.1125L100.598 30.1125L100.598 28.5125L107.649 28.5125L107.649 30.1125ZM86.4948 30.1125L72.3917 30.1125L72.3917 28.5125L86.4948 28.5125L86.4948 30.1125ZM58.2885 30.1125L51.237 30.1125L51.237 28.5125L58.2885 28.5125L58.2885 30.1125ZM52.037 29.3125L52.037 35.6561L50.437 35.6561L50.437 29.3125L52.037 29.3125ZM52.037 48.3433L52.037 61.0305L50.437 61.0305L50.437 48.3433L52.037 48.3433ZM52.037 73.7177L52.0369 86.4049L50.4369 86.4049L50.437 73.7177L52.037 73.7177ZM52.0369 99.0921L52.0369 111.779L50.4369 111.779L50.4369 99.0921L52.0369 99.0921ZM52.0369 124.466L52.0369 130.81L50.4369 130.81L50.4369 124.466L52.0369 124.466ZM51.2369 130.01L58.2885 130.01L58.2885 131.61L51.2369 131.61L51.2369 130.01ZM72.3916 130.01L86.4948 130.01L86.4948 131.61L72.3916 131.61L72.3916 130.01ZM100.598 130.01L107.65 130.01L107.65 131.61L100.598 131.61L100.598 130.01Z" fill="#838383"/>
</svg>
