<svg width="41" height="40" viewBox="0 0 41 40" fill="none" xmlns="http://www.w3.org/2000/svg">
<g clip-path="url(#clip0)">
<path d="M32.9114 0C28.5114 0 24.9114 3.6 24.9114 8C24.9114 12.4 28.5114 16 32.9114 16C37.3114 16 40.9114 12.4 40.9114 8C40.9114 3.6 37.3114 0 32.9114 0ZM32.9114 1.6C36.4314 1.6 39.3114 4.48 39.3114 8C39.3114 11.52 36.4314 14.4 32.9114 14.4C29.3914 14.4 26.5114 11.52 26.5114 8C26.5114 4.48 29.3914 1.6 32.9114 1.6ZM36.352 4.32031L32.0317 9.35937L29.3911 7.35937L28.4317 8.64062L32.1911 11.5203L37.552 5.35937L36.352 4.32031ZM7.31136 6.4C5.54656 6.4 4.11136 7.8352 4.11136 9.6V27.2C4.11136 27.7858 4.28087 28.3273 4.55668 28.8H2.51136C2.2992 28.8 2.09573 28.8843 1.9457 29.0343C1.79568 29.1844 1.71139 29.3878 1.71136 29.6C1.71136 31.7996 3.51175 33.6 5.71136 33.6H36.1114C38.311 33.6 40.1114 31.7996 40.1114 29.6C40.1113 29.3878 40.0271 29.1844 39.877 29.0343C39.727 28.8843 39.5235 28.8 39.3114 28.8H37.2661C37.5419 28.3273 37.7114 27.7858 37.7114 27.2V16.3047C37.205 16.5983 36.6706 16.8438 36.1114 17.0422V27.2C36.1114 28.0824 35.3938 28.8 34.5114 28.8H7.31136C6.42896 28.8 5.71136 28.0824 5.71136 27.2V9.6C5.71136 8.7176 6.42896 8 7.31136 8H23.3114C23.3114 7.4536 23.3671 6.9216 23.4551 6.4H7.31136ZM3.64105 30.4H7.31136H34.5114H38.1817C37.832 31.29 37.132 32 36.1114 32H5.71136C4.69068 32 3.99072 31.29 3.64105 30.4Z" fill="black"/>
</g>
<defs>
<clipPath id="clip0">
<rect width="40" height="40" fill="white" transform="translate(0.911377)"/>
</clipPath>
</defs>
</svg>
