<svg width="43" height="40" viewBox="0 0 43 40" fill="none" xmlns="http://www.w3.org/2000/svg">
<g clip-path="url(#clip0)">
<path d="M6.69746 7.2002C4.42509 7.2002 2.56515 9.00058 2.56515 11.2002V28.8002C2.56515 30.9998 4.42509 32.8002 6.69746 32.8002H19.9209V31.2002H6.69746C5.31852 31.2002 4.21807 30.135 4.21807 28.8002V16.8002H38.9295V26.4002H40.5825V11.2002C40.5825 9.00058 38.7225 7.2002 36.4501 7.2002H6.69746ZM6.69746 8.8002H36.4501C37.8291 8.8002 38.9295 9.86541 38.9295 11.2002V12.8002H4.21807V11.2002C4.21807 9.86541 5.31852 8.8002 6.69746 8.8002ZM8.35039 19.2002V20.8002H21.5738V19.2002H8.35039ZM21.5738 28.0002V28.8002V40.0002H42.2354V28.0002H21.5738ZM24.8086 29.6002H39.0022C38.9361 29.7811 38.9158 29.9746 38.943 30.1646C38.9701 30.3547 39.0439 30.5356 39.1583 30.6923C39.2726 30.849 39.424 30.9769 39.5999 31.0653C39.7758 31.1537 39.971 31.1999 40.1692 31.2002C40.3101 31.1997 40.4498 31.1759 40.5825 31.1299V36.8689C40.4497 36.8235 40.31 36.8002 40.1692 36.8002C39.9709 36.8002 39.7755 36.8463 39.5994 36.9345C39.4233 37.0228 39.2716 37.1507 39.1571 37.3074C39.0426 37.4642 38.9686 37.6452 38.9414 37.8354C38.9142 38.0255 38.9344 38.2192 39.0005 38.4002H24.807C24.8731 38.2193 24.8934 38.0258 24.8662 37.8357C24.8391 37.6457 24.7652 37.4648 24.6509 37.3081C24.5366 37.1514 24.3852 37.0235 24.2093 36.9351C24.0334 36.8467 23.8381 36.8005 23.64 36.8002C23.4991 36.8007 23.3593 36.8245 23.2267 36.8705V31.1314C23.3594 31.1769 23.4992 31.2002 23.64 31.2002C23.8383 31.2002 24.0337 31.1541 24.2098 31.0658C24.3859 30.9776 24.5376 30.8497 24.6521 30.693C24.7666 30.5362 24.8405 30.3552 24.8678 30.165C24.895 29.9749 24.8747 29.7812 24.8086 29.6002ZM31.9046 31.2002C31.0093 31.2002 30.2326 31.554 29.7367 32.0939C29.2409 32.6339 29.012 33.3224 29.012 34.0002C29.012 34.678 29.2409 35.3665 29.7367 35.9064C30.2326 36.4464 31.0093 36.8002 31.9046 36.8002C32.7999 36.8002 33.5766 36.4464 34.0724 35.9064C34.5683 35.3665 34.7972 34.678 34.7972 34.0002C34.7972 33.3224 34.5683 32.6339 34.0724 32.0939C33.5766 31.554 32.7999 31.2002 31.9046 31.2002ZM26.1193 32.8002C25.9561 32.7995 25.7943 32.8292 25.6432 32.8875C25.4921 32.9458 25.3548 33.0317 25.2391 33.1401C25.1233 33.2486 25.0315 33.3775 24.9689 33.5195C24.9062 33.6614 24.8739 33.8137 24.8739 33.9674C24.8739 34.1211 24.9062 34.2733 24.9689 34.4153C25.0315 34.5573 25.1233 34.6862 25.2391 34.7946C25.3548 34.9031 25.4921 34.9889 25.6432 35.0473C25.7943 35.1056 25.9561 35.1353 26.1193 35.1346C26.2826 35.1353 26.4444 35.1056 26.5955 35.0473C26.7466 34.9889 26.8839 34.9031 26.9996 34.7946C27.1154 34.6862 27.2072 34.5573 27.2698 34.4153C27.3325 34.2733 27.3648 34.1211 27.3648 33.9674C27.3648 33.8137 27.3325 33.6614 27.2698 33.5195C27.2072 33.3775 27.1154 33.2486 26.9996 33.1401C26.8839 33.0317 26.7466 32.9458 26.5955 32.8875C26.4444 32.8292 26.2826 32.7995 26.1193 32.8002ZM31.9046 32.8002C32.3867 32.8002 32.6431 32.9464 32.836 33.1564C33.0289 33.3665 33.1443 33.678 33.1443 34.0002C33.1443 34.3224 33.0289 34.6339 32.836 34.8439C32.6431 35.054 32.3867 35.2002 31.9046 35.2002C31.4225 35.2002 31.1661 35.054 30.9732 34.8439C30.7803 34.6339 30.6649 34.3224 30.6649 34.0002C30.6649 33.678 30.7803 33.3665 30.9732 33.1564C31.1661 32.9464 31.4225 32.8002 31.9046 32.8002ZM37.6898 32.8002C37.5266 32.7995 37.3647 32.8292 37.2137 32.8875C37.0626 32.9458 36.9253 33.0317 36.8095 33.1401C36.6938 33.2486 36.602 33.3775 36.5393 33.5195C36.4767 33.6614 36.4444 33.8137 36.4444 33.9674C36.4444 34.1211 36.4767 34.2733 36.5393 34.4153C36.602 34.5573 36.6938 34.6862 36.8095 34.7946C36.9253 34.9031 37.0626 34.9889 37.2137 35.0473C37.3647 35.1056 37.5266 35.1353 37.6898 35.1346C37.8531 35.1353 38.0149 35.1056 38.166 35.0473C38.3171 34.9889 38.4544 34.9031 38.5701 34.7946C38.6858 34.6862 38.7777 34.5573 38.8403 34.4153C38.903 34.2733 38.9352 34.1211 38.9352 33.9674C38.9352 33.8137 38.903 33.6614 38.8403 33.5195C38.7777 33.3775 38.6858 33.2486 38.5701 33.1401C38.4544 33.0317 38.3171 32.9458 38.166 32.8875C38.0149 32.8292 37.8531 32.7995 37.6898 32.8002Z" fill="black"/>
</g>
<defs>
<clipPath id="clip0">
<rect width="41.3232" height="40" fill="white" transform="translate(0.912231)"/>
</clipPath>
</defs>
</svg>
