<svg width="41" height="40" viewBox="0 0 41 40" fill="none" xmlns="http://www.w3.org/2000/svg">
<g clip-path="url(#clip0)">
<path d="M0.911377 6.3999V7.9999H23.3864C23.7051 7.9999 24.1114 8.40615 24.1114 8.7249V30.3999H16.0364C15.6551 28.1312 13.6833 26.3999 11.3114 26.3999C8.9395 26.3999 6.96763 28.1312 6.58638 30.3999H3.31138C2.86763 30.3999 2.51138 30.0437 2.51138 29.5999V22.3999H0.911377V29.5999C0.911377 30.9155 1.99575 31.9999 3.31138 31.9999H6.58638C6.96763 34.2687 8.9395 35.9999 11.3114 35.9999C13.6833 35.9999 15.6551 34.2687 16.0364 31.9999H28.1864C28.5676 34.2687 30.5395 35.9999 32.9114 35.9999C35.2833 35.9999 37.2551 34.2687 37.6364 31.9999H38.5114C39.177 31.9999 39.7614 31.6999 40.1864 31.2749C40.6114 30.8499 40.9114 30.2655 40.9114 29.5999V21.9249C40.9114 21.0249 40.5676 20.1999 40.2614 19.5749C39.9551 18.9499 39.6364 18.4999 39.6364 18.4999V18.4749L36.3614 14.0749H36.3364V14.0499C35.627 13.1624 34.4895 11.9999 32.9114 11.9999H26.5114C26.2239 11.9999 25.9614 12.053 25.7114 12.1499V8.7249C25.7114 7.44365 24.6676 6.3999 23.3864 6.3999H0.911377ZM0.911377 9.5999V11.1999H15.3114V9.5999H0.911377ZM0.911377 12.7999V14.3999H12.9114V12.7999H0.911377ZM26.5114 13.5999H29.7114V20.7999C29.7114 21.4655 30.0114 22.0499 30.4364 22.4749C30.8614 22.8999 31.4458 23.1999 32.1114 23.1999H39.3114V29.5999C39.3114 29.7343 39.2114 29.9499 39.0364 30.1249C38.8614 30.2999 38.6458 30.3999 38.5114 30.3999H37.6364C37.2551 28.1312 35.2833 26.3999 32.9114 26.3999C30.5395 26.3999 28.5676 28.1312 28.1864 30.3999H25.7114V14.3999C25.7114 14.2655 25.8114 14.0499 25.9864 13.8749C26.1614 13.6999 26.377 13.5999 26.5114 13.5999ZM31.3114 13.5999H32.9114C33.5708 13.5999 34.4895 14.3405 35.0614 15.0499L38.3364 19.4249L38.3614 19.4499C38.377 19.4718 38.5926 19.778 38.8364 20.2749C39.0395 20.6874 39.1458 21.178 39.2114 21.5999H32.1114C31.977 21.5999 31.7614 21.4999 31.5864 21.3249C31.4114 21.1499 31.3114 20.9343 31.3114 20.7999V13.5999ZM0.911377 15.9999V17.5999H10.5114V15.9999H0.911377ZM0.911377 19.1999V20.7999H8.11138V19.1999H0.911377ZM11.3114 27.9999C13.0895 27.9999 14.5114 29.4218 14.5114 31.1999C14.5114 32.978 13.0895 34.3999 11.3114 34.3999C9.53325 34.3999 8.11138 32.978 8.11138 31.1999C8.11138 29.4218 9.53325 27.9999 11.3114 27.9999ZM32.9114 27.9999C34.6895 27.9999 36.1114 29.4218 36.1114 31.1999C36.1114 32.978 34.6895 34.3999 32.9114 34.3999C31.1333 34.3999 29.7114 32.978 29.7114 31.1999C29.7114 29.4218 31.1333 27.9999 32.9114 27.9999Z" fill="black"/>
</g>
<defs>
<clipPath id="clip0">
<rect width="40" height="40" fill="white" transform="translate(0.911377)"/>
</clipPath>
</defs>
</svg>
