<svg width="41" height="40" viewBox="0 0 41 40" fill="none" xmlns="http://www.w3.org/2000/svg">
<path d="M11.2997 2.38926C11.0878 2.39257 10.8859 2.47982 10.7383 2.63185C10.5906 2.78389 10.5093 2.98829 10.5122 3.2002V4.0002H8.83567C7.55402 4.0002 6.51223 5.07018 6.51223 6.35176V35.2486C6.51223 36.5306 7.55402 37.6002 8.83567 37.6002H32.9888C34.2704 37.6002 35.3122 36.5302 35.3122 35.2486V6.35176C35.3122 5.07018 34.2704 4.0002 32.9888 4.0002H32.1122V5.6002H32.9888C33.3903 5.6002 33.7122 5.91973 33.7122 6.35176V35.2486C33.7122 35.6807 33.3903 36.0002 32.9888 36.0002H8.83567C8.43412 36.0002 8.11223 35.6819 8.11223 35.2486V6.35176C8.11223 5.91973 8.43412 5.6002 8.83567 5.6002H10.5122V6.4002C10.5107 6.50621 10.5303 6.61145 10.5698 6.70983C10.6094 6.8082 10.6681 6.89774 10.7425 6.97324C10.8169 7.04873 10.9056 7.10868 11.0034 7.1496C11.1012 7.19052 11.2062 7.21159 11.3122 7.21159C11.4183 7.21159 11.5232 7.19052 11.621 7.1496C11.7188 7.10868 11.8075 7.04873 11.882 6.97324C11.9564 6.89774 12.0151 6.8082 12.0546 6.70983C12.0941 6.61145 12.1137 6.50621 12.1122 6.4002V3.2002C12.1137 3.09316 12.0937 2.98693 12.0533 2.88777C12.013 2.78862 11.9532 2.69857 11.8774 2.62295C11.8017 2.54734 11.7115 2.48769 11.6123 2.44755C11.513 2.40741 11.4068 2.38759 11.2997 2.38926ZM16.0997 2.38926C15.8878 2.39257 15.6859 2.47982 15.5383 2.63185C15.3906 2.78389 15.3093 2.98829 15.3122 3.2002V4.0002H12.9122V5.6002H15.3122V6.4002C15.3107 6.50621 15.3303 6.61145 15.3698 6.70983C15.4094 6.8082 15.4681 6.89774 15.5425 6.97324C15.6169 7.04873 15.7056 7.10868 15.8034 7.1496C15.9012 7.19052 16.0062 7.21159 16.1122 7.21159C16.2183 7.21159 16.3232 7.19052 16.421 7.1496C16.5188 7.10868 16.6075 7.04873 16.682 6.97324C16.7564 6.89774 16.8151 6.8082 16.8546 6.70983C16.8941 6.61145 16.9137 6.50621 16.9122 6.4002V3.2002C16.9137 3.09316 16.8937 2.98693 16.8533 2.88777C16.813 2.78862 16.7532 2.69857 16.6774 2.62295C16.6017 2.54734 16.5115 2.48769 16.4123 2.44755C16.313 2.40741 16.2068 2.38759 16.0997 2.38926ZM20.8997 2.38926C20.6878 2.39257 20.4859 2.47982 20.3383 2.63185C20.1906 2.78389 20.1093 2.98829 20.1122 3.2002V4.0002H17.7122V5.6002H20.1122V6.4002C20.1107 6.50621 20.1303 6.61145 20.1698 6.70983C20.2094 6.8082 20.2681 6.89774 20.3425 6.97324C20.4169 7.04873 20.5056 7.10868 20.6034 7.1496C20.7012 7.19052 20.8062 7.21159 20.9122 7.21159C21.0183 7.21159 21.1232 7.19052 21.221 7.1496C21.3188 7.10868 21.4075 7.04873 21.482 6.97324C21.5564 6.89774 21.6151 6.8082 21.6546 6.70983C21.6941 6.61145 21.7137 6.50621 21.7122 6.4002V3.2002C21.7137 3.09316 21.6937 2.98693 21.6533 2.88777C21.613 2.78862 21.5532 2.69857 21.4774 2.62295C21.4017 2.54734 21.3115 2.48769 21.2123 2.44755C21.113 2.40741 21.0068 2.38759 20.8997 2.38926ZM25.6997 2.38926C25.4878 2.39257 25.2859 2.47982 25.1383 2.63185C24.9906 2.78389 24.9093 2.98829 24.9122 3.2002V4.0002H22.5122V5.6002H24.9122V6.4002C24.9107 6.50621 24.9303 6.61145 24.9698 6.70983C25.0094 6.8082 25.0681 6.89774 25.1425 6.97324C25.2169 7.04873 25.3056 7.10868 25.4034 7.1496C25.5012 7.19052 25.6062 7.21159 25.7122 7.21159C25.8183 7.21159 25.9232 7.19052 26.021 7.1496C26.1188 7.10868 26.2075 7.04873 26.282 6.97324C26.3564 6.89774 26.4151 6.8082 26.4546 6.70983C26.4941 6.61145 26.5137 6.50621 26.5122 6.4002V3.2002C26.5137 3.09316 26.4937 2.98693 26.4533 2.88777C26.413 2.78862 26.3532 2.69857 26.2774 2.62295C26.2017 2.54734 26.1115 2.48769 26.0123 2.44755C25.913 2.40741 25.8068 2.38759 25.6997 2.38926ZM30.4997 2.38926C30.2878 2.39257 30.0859 2.47982 29.9383 2.63185C29.7906 2.78389 29.7093 2.98829 29.7122 3.2002V4.0002H27.3122V5.6002H29.7122V6.4002C29.7107 6.50621 29.7303 6.61145 29.7698 6.70983C29.8094 6.8082 29.8681 6.89774 29.9425 6.97324C30.0169 7.04873 30.1056 7.10868 30.2034 7.1496C30.3012 7.19052 30.4062 7.21159 30.5122 7.21159C30.6182 7.21159 30.7232 7.19052 30.821 7.1496C30.9188 7.10868 31.0075 7.04873 31.082 6.97324C31.1564 6.89774 31.2151 6.8082 31.2546 6.70983C31.2941 6.61145 31.3137 6.50621 31.3122 6.4002V3.2002C31.3137 3.09316 31.2937 2.98693 31.2533 2.88777C31.213 2.78862 31.1532 2.69857 31.0774 2.62295C31.0017 2.54734 30.9115 2.48769 30.8123 2.44755C30.713 2.40741 30.6068 2.38759 30.4997 2.38926ZM12.1122 12.8002V14.4002H26.5122V12.8002H12.1122ZM12.1122 18.4002V20.0002H29.7122V18.4002H12.1122ZM12.1122 24.0002V25.6002H26.5122V24.0002H12.1122ZM12.1122 29.6002V31.2002H28.1122V29.6002H12.1122Z" fill="black"/>
</svg>
