<svg width="37" height="32" viewBox="0 0 37 32" fill="none" xmlns="http://www.w3.org/2000/svg">
<path d="M1.71118 26.4002H35.3112V7.2002H1.71118V26.4002Z" stroke="black" stroke-miterlimit="10"/>
<path d="M35.3112 21.8074C35.3112 23.1106 33.2296 23.2498 32.6872 23.7922C32.1432 24.3362 32.0424 26.4002 30.0704 26.4002M6.95198 7.2002C4.97998 7.2002 4.87918 9.2642 4.33598 9.8082C3.79278 10.3506 1.71118 10.4898 1.71118 11.793L6.95198 7.2002ZM30.0704 7.2002C32.0424 7.2002 32.1432 9.2642 32.6872 9.8082C33.2296 10.3506 35.3112 10.4898 35.3112 11.793L30.0704 7.2002ZM6.91118 15.2002C6.59292 15.2002 6.2877 15.3266 6.06265 15.5517C5.83761 15.7767 5.71118 16.0819 5.71118 16.4002C5.71118 16.7185 5.83761 17.0237 6.06265 17.2487C6.2877 17.4738 6.59292 17.6002 6.91118 17.6002C7.22944 17.6002 7.53467 17.4738 7.75971 17.2487C7.98475 17.0237 8.11118 16.7185 8.11118 16.4002C8.11118 16.0819 7.98475 15.7767 7.75971 15.5517C7.53467 15.3266 7.22944 15.2002 6.91118 15.2002V15.2002ZM30.1112 15.2002C29.7929 15.2002 29.4877 15.3266 29.2627 15.5517C29.0376 15.7767 28.9112 16.0819 28.9112 16.4002C28.9112 16.7185 29.0376 17.0237 29.2627 17.2487C29.4877 17.4738 29.7929 17.6002 30.1112 17.6002C30.4294 17.6002 30.7347 17.4738 30.9597 17.2487C31.1848 17.0237 31.3112 16.7185 31.3112 16.4002C31.3112 16.0819 31.1848 15.7767 30.9597 15.5517C30.7347 15.3266 30.4294 15.2002 30.1112 15.2002ZM18.5112 9.6002C16.8138 9.6002 15.1859 10.3588 13.9857 11.709C12.7855 13.0593 12.1112 14.8906 12.1112 16.8002C12.1112 18.7098 12.7855 20.5411 13.9857 21.8914C15.1859 23.2416 16.8138 24.0002 18.5112 24.0002C20.2086 24.0002 21.8364 23.2416 23.0367 21.8914C24.2369 20.5411 24.9112 18.7098 24.9112 16.8002C24.9112 14.8906 24.2369 13.0593 23.0367 11.709C21.8364 10.3588 20.2086 9.6002 18.5112 9.6002V9.6002ZM1.71118 21.8074C1.71118 23.1106 3.79278 23.2498 4.33598 23.7922C4.87918 24.3362 4.97998 26.4002 6.95198 26.4002L1.71118 21.8074Z" stroke="black" stroke-miterlimit="10"/>
<path d="M35.3112 21.8071C35.3112 23.1103 33.2296 23.2495 32.6872 23.7919C32.1432 24.3359 32.0424 26.3999 30.0704 26.3999M1.71118 21.8071C1.71118 23.1103 3.79278 23.2495 4.33598 23.7919C4.87918 24.3359 4.97998 26.3999 6.95198 26.3999L1.71118 21.8071Z" stroke="black" stroke-miterlimit="10"/>
</svg>
