<svg width="41" height="40" viewBox="0 0 41 40" fill="none" xmlns="http://www.w3.org/2000/svg">
<path d="M20.9294 2.4001C20.8377 2.39804 20.7462 2.41178 20.6591 2.44073L3.85911 8.04073C3.69978 8.09388 3.56122 8.19583 3.46307 8.33213C3.36492 8.46842 3.31215 8.63215 3.31223 8.8001V36.8001C3.31225 37.0123 3.39655 37.2157 3.54657 37.3658C3.6966 37.5158 3.90007 37.6001 4.11223 37.6001H8.77786C8.86425 37.6144 8.9524 37.6144 9.03879 37.6001H32.7779C32.8643 37.6144 32.9524 37.6144 33.0388 37.6001H33.0513H37.7122C37.9244 37.6001 38.1279 37.5158 38.2779 37.3658C38.4279 37.2157 38.5122 37.0123 38.5122 36.8001V8.8001C38.5123 8.63215 38.4595 8.46842 38.3614 8.33213C38.2632 8.19583 38.1247 8.09388 37.9654 8.04073L21.1654 2.44073C21.0892 2.41543 21.0097 2.40174 20.9294 2.4001ZM20.9122 4.04385L36.9122 9.37667V36.0001H33.7122V13.6001C33.7122 13.3879 33.6279 13.1845 33.4779 13.0344C33.3279 12.8844 33.1244 12.8001 32.9122 12.8001H8.91223C8.70007 12.8001 8.4966 12.8844 8.34657 13.0344C8.19655 13.1845 8.11225 13.3879 8.11223 13.6001V36.0001H4.91223V9.37667L20.9122 4.04385ZM9.71223 14.4001H32.1122V36.0001H29.7122V28.8001C29.7122 28.5879 29.6279 28.3845 29.4779 28.2344C29.3279 28.0844 29.1244 28.0001 28.9122 28.0001H25.7122V20.8001C25.7122 20.5879 25.6279 20.3845 25.4779 20.2344C25.3279 20.0844 25.1244 20.0001 24.9122 20.0001H16.9122C16.7001 20.0001 16.4966 20.0844 16.3466 20.2344C16.1965 20.3845 16.1123 20.5879 16.1122 20.8001V28.0001H12.9122C12.7001 28.0001 12.4966 28.0844 12.3466 28.2344C12.1965 28.3845 12.1123 28.5879 12.1122 28.8001V36.0001H9.71223V14.4001ZM17.7122 21.6001H24.1122V28.0001H20.9122H17.7122V21.6001ZM13.7122 29.6001H16.9122H20.1122V36.0001H13.7122V29.6001ZM21.7122 29.6001H24.9122H28.1122V36.0001H21.7122V29.6001Z" fill="black"/>
</svg>
