<svg width="41" height="40" viewBox="0 0 41 40" fill="none" xmlns="http://www.w3.org/2000/svg">
<g clip-path="url(#clip0)">
<path d="M20.8989 1.60019C20.6911 1.60351 20.4927 1.68756 20.3458 1.83457L15.5458 6.63457C15.469 6.70828 15.4077 6.79658 15.3655 6.89428C15.3232 6.99198 15.3009 7.09713 15.2999 7.20356C15.2988 7.30999 15.3189 7.41557 15.3592 7.51411C15.3994 7.61266 15.4589 7.70218 15.5342 7.77744C15.6094 7.85271 15.6989 7.9122 15.7975 7.95243C15.896 7.99266 16.0016 8.01282 16.108 8.01174C16.2145 8.01066 16.3196 7.98835 16.4173 7.94612C16.515 7.90389 16.6033 7.8426 16.677 7.76582L20.1114 4.33144V15.2002C20.1099 15.3062 20.1295 15.4114 20.169 15.5098C20.2085 15.6082 20.2672 15.6977 20.3417 15.7732C20.4161 15.8487 20.5048 15.9087 20.6026 15.9496C20.7004 15.9905 20.8054 16.0116 20.9114 16.0116C21.0174 16.0116 21.1224 15.9905 21.2202 15.9496C21.318 15.9087 21.4067 15.8487 21.4811 15.7732C21.5556 15.6977 21.6143 15.6082 21.6538 15.5098C21.6933 15.4114 21.7129 15.3062 21.7114 15.2002V4.33144L25.1458 7.76582C25.2195 7.8426 25.3078 7.90389 25.4055 7.94612C25.5032 7.98835 25.6083 8.01066 25.7148 8.01174C25.8212 8.01282 25.9268 7.99266 26.0253 7.95243C26.1239 7.9122 26.2134 7.85271 26.2887 7.77744C26.3639 7.70218 26.4234 7.61266 26.4636 7.51411C26.5039 7.41557 26.524 7.30999 26.523 7.20356C26.5219 7.09713 26.4996 6.99198 26.4573 6.89428C26.4151 6.79658 26.3538 6.70828 26.277 6.63457L21.477 1.83457C21.4013 1.75877 21.3111 1.69897 21.2117 1.65871C21.1124 1.61845 21.0061 1.59855 20.8989 1.60019ZM12.1192 11.1955C12.0202 11.1962 11.9222 11.2153 11.8302 11.2518L5.43015 13.6518C5.31522 13.6901 5.2105 13.754 5.12388 13.8388C5.03727 13.9235 4.97102 14.0268 4.93015 14.1408L1.03328 20.3768C0.970494 20.4775 0.93093 20.591 0.917459 20.709C0.903987 20.827 0.916944 20.9465 0.95539 21.0588C0.993836 21.1712 1.05681 21.2736 1.13974 21.3585C1.22266 21.4435 1.32347 21.509 1.43484 21.5502L4.9114 22.8314V32.0002C4.91155 32.1637 4.9618 32.3233 5.05539 32.4574C5.14898 32.5914 5.2814 32.6936 5.43484 32.7502L20.6348 38.3502C20.8134 38.416 21.0095 38.416 21.188 38.3502L36.388 32.7502C36.5414 32.6936 36.6738 32.5914 36.7674 32.4574C36.861 32.3233 36.9113 32.1637 36.9114 32.0002V22.8314L40.388 21.5502C40.4993 21.509 40.6001 21.4435 40.6831 21.3585C40.766 21.2736 40.829 21.1712 40.8674 21.0588C40.9059 20.9465 40.9188 20.827 40.9053 20.709C40.8919 20.591 40.8523 20.4775 40.7895 20.3768L36.8958 14.1486C36.8577 14.0397 36.7965 13.9403 36.7164 13.8572C36.6363 13.7741 36.5392 13.7094 36.4317 13.6674C36.4224 13.6636 36.413 13.6599 36.4036 13.6564C36.4 13.6549 36.3963 13.6533 36.3927 13.6518L29.9927 11.2518C29.8927 11.2126 29.7859 11.194 29.6786 11.1971C29.4927 11.2029 29.3147 11.2733 29.1751 11.3961C29.0355 11.519 28.9431 11.6866 28.9137 11.8703C28.8843 12.0539 28.9197 12.242 29.014 12.4023C29.1082 12.5626 29.2554 12.6851 29.4302 12.7486L33.8177 14.3939L20.9114 19.1486L8.00515 14.3939L12.3927 12.7486C12.5702 12.6849 12.7196 12.5604 12.8143 12.3973C12.9091 12.2341 12.9431 12.0427 12.9103 11.8569C12.8776 11.671 12.7803 11.5027 12.6355 11.3817C12.4908 11.2607 12.3079 11.1948 12.1192 11.1955ZM6.04578 15.3752L19.713 20.4096L16.5786 25.4252L2.90984 20.3908L6.04578 15.3752ZM35.777 15.3752L38.913 20.3908L25.2442 25.4252L22.1098 20.4096L35.777 15.3752ZM20.1114 22.7877V36.4518L6.5114 31.4424V23.4205L16.6348 27.1502C16.8073 27.2137 16.9963 27.2158 17.1702 27.1564C17.344 27.0969 17.4921 26.9794 17.5895 26.8236L20.1114 22.7877ZM21.7114 22.7877L24.2333 26.8236C24.3307 26.9794 24.4788 27.0969 24.6527 27.1564C24.8265 27.2158 25.0155 27.2137 25.188 27.1502L35.3114 23.4205V31.4424L21.7114 36.4518V22.7877Z" fill="black"/>
</g>
<defs>
<clipPath id="clip0">
<rect width="40" height="40" fill="white" transform="translate(0.911377)"/>
</clipPath>
</defs>
</svg>
